<svg viewBox="0 0 24 25" fill="currentColor" xmlns="http://www.w3.org/2000/svg">
<path d="M23.25 8V10.25C23.25 10.4489 23.171 10.6397 23.0303 10.7803C22.8897 10.921 22.6989 11 22.5 11C22.3011 11 22.1103 10.921 21.9697 10.7803C21.829 10.6397 21.75 10.4489 21.75 10.25V8C21.75 7.80109 21.829 7.61032 21.9697 7.46967C22.1103 7.32902 22.3011 7.25 22.5 7.25C22.6989 7.25 22.8897 7.32902 23.0303 7.46967C23.171 7.61032 23.25 7.80109 23.25 8ZM1.5 7.25C1.30109 7.25 1.11032 7.32902 0.96967 7.46967C0.829018 7.61032 0.75 7.80109 0.75 8V10.25C0.75 10.4489 0.829018 10.6397 0.96967 10.7803C1.11032 10.921 1.30109 11 1.5 11C1.69891 11 1.88968 10.921 2.03033 10.7803C2.17098 10.6397 2.25 10.4489 2.25 10.25V8C2.25 7.80109 2.17098 7.61032 2.03033 7.46967C1.88968 7.32902 1.69891 7.25 1.5 7.25ZM20.25 6.5V20C20.25 20.3978 20.092 20.7794 19.8107 21.0607C19.5294 21.342 19.1478 21.5 18.75 21.5H17.25C16.8522 21.5 16.4706 21.342 16.1893 21.0607C15.908 20.7794 15.75 20.3978 15.75 20V19.25H8.25V20C8.25 20.3978 8.09196 20.7794 7.81066 21.0607C7.52936 21.342 7.14782 21.5 6.75 21.5H5.25C4.85218 21.5 4.47064 21.342 4.18934 21.0607C3.90804 20.7794 3.75 20.3978 3.75 20V6.5C3.75 5.70435 4.06607 4.94129 4.62868 4.37868C5.19129 3.81607 5.95435 3.5 6.75 3.5H17.25C18.0456 3.5 18.8087 3.81607 19.3713 4.37868C19.9339 4.94129 20.25 5.70435 20.25 6.5ZM9.75 14.375C9.75 14.1525 9.68402 13.935 9.5604 13.75C9.43679 13.565 9.26109 13.4208 9.05552 13.3356C8.84995 13.2505 8.62375 13.2282 8.40552 13.2716C8.18729 13.315 7.98684 13.4222 7.8295 13.5795C7.67217 13.7368 7.56502 13.9373 7.52162 14.1555C7.47821 14.3738 7.50049 14.6 7.58564 14.8055C7.67078 15.0111 7.81498 15.1868 7.99998 15.3104C8.18499 15.434 8.4025 15.5 8.625 15.5C8.92337 15.5 9.20952 15.3815 9.4205 15.1705C9.63147 14.9595 9.75 14.6734 9.75 14.375ZM16.5 14.375C16.5 14.1525 16.434 13.935 16.3104 13.75C16.1868 13.565 16.0111 13.4208 15.8055 13.3356C15.6 13.2505 15.3738 13.2282 15.1555 13.2716C14.9373 13.315 14.7368 13.4222 14.5795 13.5795C14.4222 13.7368 14.315 13.9373 14.2716 14.1555C14.2282 14.3738 14.2505 14.6 14.3356 14.8055C14.4208 15.0111 14.565 15.1868 14.75 15.3104C14.935 15.434 15.1525 15.5 15.375 15.5C15.6734 15.5 15.9595 15.3815 16.1705 15.1705C16.3815 14.9595 16.5 14.6734 16.5 14.375ZM18.75 7.25H5.25V11H18.75V7.25Z" fill="currentColor"/>
</svg>
