<svg viewBox="0 0 24 25" fill="none" xmlns="http://www.w3.org/2000/svg">
<g id="pin">
<path id="Vector" d="M12.0001 2C9.81278 2.00248 7.71578 2.87248 6.16913 4.41913C4.62248 5.96578 3.75248 8.06278 3.75 10.2501C3.75 17.3095 11.2501 22.6411 11.5698 22.8642C11.6959 22.9526 11.8461 23 12.0001 23C12.154 23 12.3043 22.9526 12.4304 22.8642C12.7501 22.6411 20.2501 17.3095 20.2501 10.2501C20.2477 8.06278 19.3777 5.96578 17.831 4.41913C16.2844 2.87248 14.1874 2.00248 12.0001 2ZM12.0001 7.25005C12.5934 7.25005 13.1734 7.42599 13.6668 7.75564C14.1601 8.08529 14.5447 8.55383 14.7717 9.10201C14.9988 9.65019 15.0582 10.2534 14.9425 10.8353C14.8267 11.4173 14.541 11.9518 14.1214 12.3714C13.7018 12.791 13.1673 13.0767 12.5853 13.1925C12.0034 13.3082 11.4002 13.2488 10.852 13.0217C10.3038 12.7947 9.83529 12.4101 9.50564 11.9168C9.17599 11.4234 9.00005 10.8434 9.00005 10.2501C9.00005 9.45442 9.31612 8.69135 9.87873 8.12873C10.4413 7.56612 11.2044 7.25005 12.0001 7.25005Z" fill="currentColor"/>
</g>
</svg>
