<svg viewBox="0 0 24 25" fill="currentColor" xmlns="http://www.w3.org/2000/svg">
<path d="M14.625 17.75V15.5H16.5V17C16.5 17.1989 16.421 17.3897 16.2803 17.5303C16.1397 17.671 15.9489 17.75 15.75 17.75H14.625ZM13.125 17.75V15.5H10.875V17.75H13.125ZM16.5 9.5C16.5 9.30109 16.421 9.11032 16.2803 8.96967C16.1397 8.82902 15.9489 8.75 15.75 8.75H8.25C8.05109 8.75 7.86032 8.82902 7.71967 8.96967C7.57902 9.11032 7.5 9.30109 7.5 9.5V14H16.5V9.5ZM14.25 3.5H9.75C7.95979 3.5 6.2429 4.21116 4.97703 5.47703C3.71116 6.7429 3 8.45979 3 10.25V20.75C3 20.9489 3.07902 21.1397 3.21967 21.2803C3.36032 21.421 3.55109 21.5 3.75 21.5H7.17938C7.24904 21.5 7.31735 21.4807 7.37663 21.4441C7.43591 21.4075 7.48382 21.3551 7.515 21.2928L8.53687 19.25H8.25C7.65326 19.25 7.08097 19.0129 6.65901 18.591C6.23705 18.169 6 17.5967 6 17V9.5C6 8.90326 6.23705 8.33097 6.65901 7.90901C7.08097 7.48705 7.65326 7.25 8.25 7.25H15.75C16.3467 7.25 16.919 7.48705 17.341 7.90901C17.7629 8.33097 18 8.90326 18 9.5V17C18 17.5967 17.7629 18.169 17.341 18.591C16.919 19.0129 16.3467 19.25 15.75 19.25H15.4631L16.485 21.2928C16.5162 21.3551 16.5641 21.4075 16.6234 21.4441C16.6827 21.4807 16.751 21.5 16.8206 21.5H20.25C20.4489 21.5 20.6397 21.421 20.7803 21.2803C20.921 21.1397 21 20.9489 21 20.75V10.25C21 8.45979 20.2888 6.7429 19.023 5.47703C17.7571 4.21116 16.0402 3.5 14.25 3.5ZM13.7869 19.25H10.2131L9.36 20.9572C9.33138 21.0144 9.31786 21.0779 9.32073 21.1418C9.32361 21.2057 9.34277 21.2678 9.3764 21.3222C9.41003 21.3766 9.45702 21.4215 9.51289 21.4526C9.56877 21.4837 9.63167 21.5 9.69562 21.5H14.3044C14.3683 21.5 14.4312 21.4837 14.4871 21.4526C14.543 21.4215 14.59 21.3766 14.6236 21.3222C14.6572 21.2678 14.6764 21.2057 14.6793 21.1418C14.6821 21.0779 14.6686 21.0144 14.64 20.9572L13.7869 19.25ZM7.5 17C7.5 17.1989 7.57902 17.3897 7.71967 17.5303C7.86032 17.671 8.05109 17.75 8.25 17.75H9.375V15.5H7.5V17Z" fill="currentColor"/>
</svg>
