<svg width="24" height="24" viewBox="0 0 24 24" fill="none" xmlns="http://www.w3.org/2000/svg">
<path d="M12.75 2.25V11.6893L15.75 8.68934L16.8107 9.75L12.5309 14.0298C12.5291 14.0316 12.5272 14.0334 12.5254 14.0352C12.4547 14.1047 12.3735 14.1573 12.2871 14.1931C12.1993 14.2295 12.1031 14.2497 12.0022 14.25L12 14.25L11.9978 14.25C11.794 14.2494 11.6094 14.1676 11.4746 14.0352C11.4728 14.0334 11.4709 14.0316 11.4691 14.0298L7.18934 9.75L8.25 8.68934L11.25 11.6893V2.25H12.75Z" fill="#015AFF"/>
<path d="M4.5 12.75V18.75H19.5V12.75H21V19.5C21 19.9142 20.6642 20.25 20.25 20.25H3.75C3.33579 20.25 3 19.9142 3 19.5V12.75H4.5Z" fill="#015AFF"/>
</svg>
