<svg fill="currentColor" viewBox="0 0 32 32" xmlns="http://www.w3.org/2000/svg">
<path fill-rule="evenodd" clip-rule="evenodd" d="M11.0982 25H5.98954C5.63939 24.9979 5.29592 24.9039 4.99346 24.7275C4.691 24.5511 4.44016 24.2985 4.26599 23.9948C4.09183 23.6911 4.00045 23.347 4.00098 22.997C4.00151 22.6469 4.09394 22.3031 4.26903 22C4.97688 20.7758 5.99556 17.367 5.99556 13C5.99556 10.3478 7.04944 7.8043 8.92536 5.92893C10.8013 4.05357 13.3456 3 15.9985 3C18.6515 3 21.1958 4.05357 23.0717 5.92893C24.9476 7.8043 26.0015 10.3478 26.0015 13C26.0015 17.3681 27.0211 20.775 27.73 21.999L27.7306 22C27.9058 22.3035 27.9983 22.6478 27.9986 22.9982C27.9989 23.3487 27.9071 23.6931 27.7323 23.9969C27.5576 24.3008 27.306 24.5534 27.0029 24.7294C26.6997 24.9055 26.3556 24.9988 26.005 25L26.0015 25H20.8992C20.7045 25.9534 20.2339 26.8372 19.5353 27.5355C18.5973 28.4732 17.3252 29 15.9987 29C14.6722 29 13.4001 28.4732 12.4621 27.5355C11.7635 26.8372 11.2929 25.9534 11.0982 25ZM10.34 7.34315C11.8407 5.84285 13.8762 5 15.9985 5C18.1209 5 20.1563 5.84285 21.6571 7.34315C23.1578 8.84344 24.0009 10.8783 24.0009 13C24.0009 17.586 25.0565 21.3734 25.998 23L20.0032 23C20.0021 23 20.001 23 19.9999 23C19.9988 23 19.9977 23 19.9966 23L11.9997 23C11.9989 23 11.9982 23 11.9975 23C11.9968 23 11.9961 23 11.9953 23L6.00158 23C6.94165 21.3739 7.99615 17.5851 7.99615 13C7.99615 10.8783 8.83926 8.84344 10.34 7.34315ZM13.1694 25C13.3172 25.4179 13.5572 25.8019 13.8767 26.1213C14.4395 26.6839 15.2028 27 15.9987 27C16.7946 27 17.5579 26.6839 18.1206 26.1213C18.4401 25.8019 18.6802 25.4179 18.828 25H13.1694Z" fill="currentColor"/>
</svg>
