<svg width="32" height="32" viewBox="0 0 32 32" fill="none" xmlns="http://www.w3.org/2000/svg" className="text-[#212121] dark:text-white">
<path fill-rule="evenodd" clip-rule="evenodd" d="M12 3C11.4696 3 10.9609 3.21071 10.5858 3.58579C10.2107 3.96086 10 4.46957 10 5V7H8C7.46957 7 6.96086 7.21071 6.58579 7.58579C6.21071 7.96086 6 8.46957 6 9V28C6 28.3746 6.20935 28.7178 6.54242 28.8892C6.87549 29.0606 7.27642 29.0315 7.58124 28.8137L14 24.2289L20.4188 28.8137C20.7236 29.0315 21.1245 29.0606 21.4576 28.8892C21.7907 28.7178 22 28.3746 22 28V23.0866L24.4189 24.8138C24.7237 25.0315 25.1246 25.0606 25.4576 24.8891C25.7907 24.7177 26 24.3746 26 24V5C26 4.46957 25.7893 3.96086 25.4142 3.58579C25.0391 3.21071 24.5304 3 24 3H12ZM20 21.1304C19.9999 21.1387 19.9999 21.1471 20 21.1554V26.0568L14.5812 22.1863C14.2335 21.9379 13.7665 21.9379 13.4188 22.1863L8 26.0568L8 9H20L20 21.1304ZM22 20.629L24 22.0572V5H12V7H20C20.5304 7 21.0391 7.21071 21.4142 7.58579C21.7893 7.96086 22 8.46957 22 9V20.629Z" fill="currentColor"/>
</svg>
