<svg width="32" height="32" viewBox="0 0 32 32" fill="none" xmlns="http://www.w3.org/2000/svg">
<path fill-rule="evenodd" clip-rule="evenodd" d="M7.58579 3.70136C7.96086 3.31419 8.46957 3.09668 9 3.09668H23C23.5304 3.09668 24.0391 3.31419 24.4142 3.70136C24.7893 4.08854 25 4.61365 25 5.1612V27.8709C25 28.2461 24.8027 28.5918 24.4848 28.7737C24.1668 28.9556 23.7783 28.9451 23.47 28.7462L16 23.9269L8.53 28.7462C8.22173 28.9451 7.83319 28.9556 7.51523 28.7737C7.19728 28.5918 7 28.2461 7 27.8709V5.1612C7 4.61365 7.21071 4.08853 7.58579 3.70136ZM23 5.1612H9L9 26.0084L15.47 21.8342C15.7943 21.625 16.2057 21.625 16.53 21.8342L23 26.0084V5.1612Z" fill="currentColor"/>
</svg>
