<svg width="16" height="16" viewBox="0 0 32 32" fill="none" xmlns="http://www.w3.org/2000/svg" className="text-[#212121] dark:text-white">
<path d="M22.3151 4.88084C20.1297 3.99389 17.7313 3.77063 15.4197 4.23893C13.1155 4.70575 10.9993 5.8391 9.33386 7.49803L5 11.4646V6H3V13C3 13.5523 3.44772 14 4 14H11V12H7.37729L10.7001 8.9588C10.7109 8.94887 10.7216 8.9387 10.732 8.9283C12.1219 7.53863 13.8905 6.58937 15.8168 6.19911C17.7432 5.80886 19.7418 5.99491 21.563 6.73403C23.3842 7.47316 24.9472 8.73257 26.0567 10.3549C27.1662 11.9773 27.773 13.8906 27.8014 15.8558C27.8297 17.8211 27.2783 19.7511 26.216 21.4048C25.1537 23.0584 23.6277 24.3624 21.8285 25.1537C20.0294 25.945 18.037 26.1886 16.1002 25.8541C14.1634 25.5195 12.3682 24.6216 10.9388 23.2726C10.5371 22.8935 9.90425 22.9119 9.52518 23.3135C9.14611 23.7152 9.16442 24.3481 9.56608 24.7271C11.2814 26.346 13.4357 27.4234 15.7598 27.8249C18.0839 28.2263 20.4748 27.934 22.6338 26.9844C24.7927 26.0349 26.624 24.4701 27.8987 22.4857C29.1735 20.5013 29.8352 18.1853 29.8012 15.827C29.7672 13.4687 29.039 11.1727 27.7075 9.22589C26.3761 7.27908 24.5005 5.76779 22.3151 4.88084Z" fill="currentColor"/>
</svg>
