<svg width="32" height="32" viewBox="0 0 32 32" fill="none" xmlns="http://www.w3.org/2000/svg" className="text-[#212121] dark:text-white">
<path fill-rule="evenodd" clip-rule="evenodd" d="M9.12602 11C9.57006 12.7252 11.1362 14 13 14C14.8638 14 16.4299 12.7252 16.874 11H28V9H16.874C16.4299 7.27477 14.8638 6 13 6C11.1362 6 9.57006 7.27477 9.12602 9H4V11H9.12602ZM11 10C11 8.89543 11.8954 8 13 8C14.1046 8 15 8.89543 15 10C15 11.1046 14.1046 12 13 12C11.8954 12 11 11.1046 11 10Z" fill="currentColor"/>
<path fill-rule="evenodd" clip-rule="evenodd" d="M17.126 23C17.5701 24.7252 19.1362 26 21 26C22.8638 26 24.4299 24.7252 24.874 23H28V21H24.874C24.4299 19.2748 22.8638 18 21 18C19.1362 18 17.5701 19.2748 17.126 21H4V23H17.126ZM19 22C19 20.8954 19.8954 20 21 20C22.1046 20 23 20.8954 23 22C23 23.1046 22.1046 24 21 24C19.8954 24 19 23.1046 19 22Z" fill="currentColor"/>
</svg>
